<svg width="71" height="76" viewBox="0 0 71 76" fill="none" xmlns="http://www.w3.org/2000/svg">
<path d="M48.7843 34.3793L69.7377 64.3199C70.2475 65.0597 69.7277 66.0693 68.828 66.0693H56.3419C55.982 66.0693 55.6421 65.8894 55.4322 65.5995L40.127 43.7464L33.1992 51.264C32.5194 52.0038 31.2698 51.5239 31.2698 50.5142V35.419C31.2698 35.1391 31.3698 34.8692 31.5597 34.6692L54.0626 10.2569C54.2725 10.027 54.5724 9.89703 54.8823 9.89703H68.818C69.7877 9.89703 70.2875 11.0467 69.6377 11.7564L48.7743 34.3793H48.7843Z" fill="url(#paint0_linear_417_5)"/>
<path d="M18.6836 32.3298V13.5857C18.6836 12.2062 19.8033 11.0865 21.1829 11.0865H30.8098C31.4196 11.0865 31.9195 10.5867 31.9195 9.97686V1.10965C31.9195 0.499841 31.4196 0 30.8098 0H13.1554C10.0964 0 7.60713 2.47922 7.60713 5.54825V29.8306C7.60713 31.2102 6.48748 32.3298 5.10792 32.3298H1.78897C1.17916 32.3298 0.679321 32.8297 0.679321 33.4395V42.2867C0.679321 42.8965 1.17916 43.3963 1.78897 43.3963H5.10792C6.48748 43.3963 7.60713 44.516 7.60713 45.8955V70.1779C7.60713 73.2369 10.0864 75.7262 13.1554 75.7262H30.8098C31.4196 75.7262 31.9195 75.2263 31.9195 74.6165V65.7493C31.9195 65.1395 31.4196 64.6396 30.8098 64.6396H21.1829C19.8033 64.6396 18.6836 63.52 18.6836 62.1404V43.3963C18.6836 40.3373 16.2044 37.8681 13.1554 37.8681C16.2144 37.8681 18.6836 35.3889 18.6836 32.3398V32.3298Z" fill="url(#paint1_linear_417_5)"/>
<path d="M49.1049 34.3793L70.0583 64.3199C70.5682 65.0597 70.0483 66.0693 69.1486 66.0693H56.6626C56.3027 66.0693 55.9628 65.8894 55.7529 65.5995L40.4477 43.7464L33.5199 51.264C32.8401 52.0038 31.5905 51.5239 31.5905 50.5142V35.419C31.5905 35.1391 31.6904 34.8692 31.8804 34.6692L54.3833 10.2569C54.5932 10.027 54.8931 9.89703 55.203 9.89703H69.1386C70.1083 9.89703 70.6082 11.0467 69.9584 11.7564L49.0949 34.3793H49.1049Z" fill="url(#paint2_linear_417_5)"/>
<path d="M19.0043 32.3298V13.5857C19.0043 12.2062 20.124 11.0865 21.5035 11.0865H31.1305C31.7403 11.0865 32.2402 10.5867 32.2402 9.97686V1.10965C32.2402 0.499841 31.7403 0 31.1305 0H13.4761C10.417 0 7.92781 2.47922 7.92781 5.54825V29.8306C7.92781 31.2102 6.80816 32.3298 5.4286 32.3298H2.10965C1.49984 32.3298 1 32.8297 1 33.4395V42.2867C1 42.8965 1.49984 43.3963 2.10965 43.3963H5.4286C6.80816 43.3963 7.92781 44.516 7.92781 45.8955V70.1779C7.92781 73.2369 10.407 75.7262 13.4761 75.7262H31.1305C31.7403 75.7262 32.2402 75.2263 32.2402 74.6165V65.7493C32.2402 65.1395 31.7403 64.6396 31.1305 64.6396H21.5035C20.124 64.6396 19.0043 63.52 19.0043 62.1404V43.3963C19.0043 40.3373 16.5251 37.8681 13.4761 37.8681C16.5351 37.8681 19.0043 35.3889 19.0043 32.3398V32.3298Z" fill="url(#paint3_linear_417_5)"/>
<defs>
<linearGradient id="paint0_linear_417_5" x1="65.3144" y1="16.6139" x2="28.2124" y2="42.1572" gradientUnits="userSpaceOnUse">
<stop stop-color="#9E76FF"/>
<stop offset="1" stop-color="#0E01A7"/>
</linearGradient>
<linearGradient id="paint1_linear_417_5" x1="28.1839" y1="9.05499" x2="-9.57121" y2="24.6322" gradientUnits="userSpaceOnUse">
<stop stop-color="#9E76FF"/>
<stop offset="1" stop-color="#0E01A7"/>
</linearGradient>
<linearGradient id="paint2_linear_417_5" x1="65.6351" y1="16.6139" x2="28.5331" y2="42.1572" gradientUnits="userSpaceOnUse">
<stop stop-color="#9E76FF"/>
<stop offset="1" stop-color="#0E01A7"/>
</linearGradient>
<linearGradient id="paint3_linear_417_5" x1="28.5046" y1="9.05499" x2="-9.25054" y2="24.6322" gradientUnits="userSpaceOnUse">
<stop stop-color="#9E76FF"/>
<stop offset="1" stop-color="#0E01A7"/>
</linearGradient>
</defs>
</svg>
